<svg width="112" height="20" viewBox="0 0 112 20" fill="none" xmlns="http://www.w3.org/2000/svg">
<path d="M15.7402 0V12C15.7402 16.4112 12.21 20 7.87012 20C3.53087 20 2.04166e-07 16.4112 0 12V0H15.7402ZM1.0498 1.06641V12C1.0498 15.8291 4.1032 18.9336 7.87012 18.9336C11.6374 18.9336 14.6914 15.8291 14.6914 12V1.06641H1.0498ZM8.05371 3.48145C10.5537 3.48161 12.5801 5.54201 12.5801 8.08301C12.58 10.6239 10.5537 12.6844 8.05371 12.6846V16.5186C5.55811 16.5186 3.52749 14.4544 3.52734 11.917V8.08301C3.52734 5.54191 5.55388 3.48145 8.05371 3.48145ZM7.04785 4.65527C5.59544 5.09615 4.5332 6.46518 4.5332 8.08301V11.917C4.5332 13.5348 5.59547 14.9032 7.04785 15.3447V4.65527ZM8.05371 11.6611C9.99486 11.661 11.5741 10.0562 11.5742 8.08301C11.5742 6.10973 9.99491 4.50407 8.05371 4.50391V11.6611Z"/>
<path d="M23.0565 5.19264L23.0059 5.25685V14.1182L23.0691 14.1824H24.4109L24.4742 14.1182V10.8176H25.7906C27.664 10.8176 28.8792 9.54623 28.8792 8.00514C28.8792 6.46404 27.664 5.19264 25.7906 5.19264H23.0565ZM24.4742 6.69521H25.7273C26.6261 6.69521 27.2083 7.19606 27.2083 8.00514C27.2083 8.81421 26.6261 9.32791 25.7273 9.32791H24.4742V6.69521Z"/>
<path d="M29.9915 8.1464L29.9283 8.21062V14.1182L29.9915 14.1824H31.3333L31.3966 14.1182V10.0342C31.7384 9.63613 32.3206 9.39212 32.9029 9.39212C33.2194 9.39212 33.7383 9.45634 34.1181 9.7774L34.1814 9.71318L34.1181 8.21062C33.7383 8.01798 33.3586 7.95377 32.9789 7.95377C32.4092 7.95377 31.8396 8.1464 31.3966 8.40325V8.21062L31.3333 8.1464H29.9915Z"/>
<path d="M37.8813 7.95377C36.1092 7.95377 34.7168 9.36644 34.7168 11.1644C34.7168 12.9623 36.1092 14.375 37.8813 14.375C39.6534 14.375 41.0458 12.9623 41.0458 11.1644C41.0458 9.36644 39.6534 7.95377 37.8813 7.95377ZM37.8813 9.39212C38.8433 9.39212 39.5268 10.137 39.5268 11.1644C39.5268 12.1918 38.8433 12.9366 37.8813 12.9366C36.9066 12.9366 36.2231 12.1918 36.2231 11.1644C36.2231 10.137 36.9066 9.39212 37.8813 9.39212Z"/>
<path d="M46.9039 5.19264L46.8407 5.25685V8.40325C46.4483 8.1464 45.8913 7.95377 45.3217 7.95377C43.5495 7.95377 42.2078 9.37928 42.2078 11.1644C42.2078 12.9495 43.5495 14.375 45.3217 14.375C45.8913 14.375 46.4483 14.1824 46.8407 13.9255V14.1182L46.9039 14.1824H48.2457L48.309 14.1182V5.25685L48.2457 5.19264H46.9039ZM46.8407 12.2432C46.4229 12.744 45.9166 12.9366 45.3723 12.9366C44.423 12.9366 43.7141 12.1789 43.7141 11.1644C43.7141 10.1498 44.423 9.39212 45.3723 9.39212C45.9166 9.39212 46.4229 9.64897 46.8407 10.0856V12.2432Z"/>
<path d="M50.0635 8.1464L50.0002 8.21062V11.5497C50.0002 13.2834 50.9496 14.375 52.8483 14.375C53.4179 14.375 53.9875 14.1824 54.4306 13.9255V14.1182L54.4939 14.1824H55.8356L55.8989 14.1182V8.21062L55.8356 8.1464H54.4939L54.4306 8.21062V12.2945C54.0888 12.6926 53.5065 12.9366 52.9242 12.9366C51.9749 12.9366 51.4686 12.4101 51.4686 11.3827V8.21062L51.4053 8.1464H50.0635Z"/>
<path d="M62.704 10.1113V8.59589C62.1977 8.21062 61.5015 7.95377 60.6787 7.95377C58.7167 7.95377 57.3876 9.39212 57.3876 11.1644C57.3876 12.9366 58.7167 14.375 60.6787 14.375C61.5015 14.375 62.1977 14.1182 62.704 13.7329V12.2175L62.6407 12.1533C62.0078 12.7055 61.3243 12.9366 60.6787 12.9366C59.5775 12.9366 58.8939 12.1533 58.8939 11.1644C58.8939 10.1755 59.5775 9.39212 60.6787 9.39212C61.3243 9.39212 62.0078 9.62329 62.6407 10.1755L62.704 10.1113Z"/>
<path d="M64.6009 6.60531L64.5376 6.66952V8.1464H63.525L63.4617 8.21062V9.58476L63.525 9.64897H64.5376V11.7038C64.5376 13.3733 65.3604 14.375 66.968 14.375C67.3731 14.375 68.0186 14.1952 68.3604 13.9897V12.5514L68.2971 12.4872C67.8034 12.8467 67.3224 12.9366 66.968 12.9366C66.4617 12.9366 66.0186 12.6027 66.0186 11.5753V9.64897H68.2971L68.3604 9.58476V8.21062L68.2971 8.1464H66.0186V6.68236L65.9554 6.60531H64.6009Z"/>
<path d="M76.3996 7.22175L77.5261 6.37414C76.9692 5.52654 76.235 5 75.197 5C73.8426 5 72.7794 6.0274 72.7794 7.3887C72.7794 9.89298 76.5894 9.79024 76.5894 11.4854C76.5894 12.2817 76.0705 12.8082 75.3236 12.8082C74.6781 12.8082 74.1844 12.4486 73.83 11.601H73.7034L72.5388 12.4615C72.9819 13.6687 74.0325 14.375 75.3236 14.375C76.9692 14.375 78.235 13.0651 78.235 11.4854C78.235 8.53168 74.4249 8.57021 74.4249 7.3887C74.4249 6.90068 74.716 6.56678 75.197 6.56678C75.6274 6.56678 75.9312 6.79794 76.273 7.22175H76.3996Z"/>
<path d="M84.6455 10.1113V8.59589C84.1392 8.21062 83.443 7.95377 82.6202 7.95377C80.6582 7.95377 79.3291 9.39212 79.3291 11.1644C79.3291 12.9366 80.6582 14.375 82.6202 14.375C83.443 14.375 84.1392 14.1182 84.6455 13.7329V12.2175L84.5822 12.1533C83.9493 12.7055 83.2658 12.9366 82.6202 12.9366C81.519 12.9366 80.8354 12.1533 80.8354 11.1644C80.8354 10.1755 81.519 9.39212 82.6202 9.39212C83.2658 9.39212 83.9493 9.62329 84.5822 10.1755L84.6455 10.1113Z"/>
<path d="M86.1247 5.19264L86.0614 5.25685V14.1182L86.1247 14.1824H87.4665L87.5298 14.1182V10.0342C87.8716 9.63613 88.4538 9.39212 89.0361 9.39212C89.9855 9.39212 90.4918 9.91866 90.4918 10.9461V14.1182L90.5551 14.1824H91.8968L91.9601 14.1182V10.7791C91.9601 9.04538 91.0108 7.95377 89.112 7.95377C88.5424 7.95377 87.9728 8.1464 87.5298 8.40325V5.25685L87.4665 5.19264H86.1247Z"/>
<path d="M96.4868 7.95377C94.7146 7.95377 93.3222 9.36644 93.3222 11.1644C93.3222 12.9623 94.7146 14.375 96.4868 14.375C98.2589 14.375 99.6513 12.9623 99.6513 11.1644C99.6513 9.36644 98.2589 7.95377 96.4868 7.95377ZM96.4868 9.39212C97.4488 9.39212 98.1323 10.137 98.1323 11.1644C98.1323 12.1918 97.4488 12.9366 96.4868 12.9366C95.5121 12.9366 94.8286 12.1918 94.8286 11.1644C94.8286 10.137 95.5121 9.39212 96.4868 9.39212Z"/>
<path d="M103.978 7.95377C102.206 7.95377 100.813 9.36644 100.813 11.1644C100.813 12.9623 102.206 14.375 103.978 14.375C105.75 14.375 107.142 12.9623 107.142 11.1644C107.142 9.36644 105.75 7.95377 103.978 7.95377ZM103.978 9.39212C104.94 9.39212 105.623 10.137 105.623 11.1644C105.623 12.1918 104.94 12.9366 103.978 12.9366C103.003 12.9366 102.32 12.1918 102.32 11.1644C102.32 10.137 103.003 9.39212 103.978 9.39212Z"/>
<path d="M108.57 5.19264L108.507 5.25685V11.9863C108.507 13.4632 109.292 14.375 110.747 14.375C111.19 14.375 111.684 14.1824 112 13.9897V12.4872L111.937 12.4229C111.557 12.8082 111.178 12.9366 110.773 12.9366C110.292 12.9366 109.975 12.6156 109.975 11.8964V5.25685L109.912 5.19264H108.57Z"/>
</svg>
